<?xml version="1.0" encoding="UTF-8" standalone="no"?>
<!DOCTYPE svg PUBLIC "-//W3C//DTD SVG 1.1//EN"
 "http://www.w3.org/Graphics/SVG/1.1/DTD/svg11.dtd">
<!-- Generated by graphviz version 2.36.0 (20140111.2315)
 -->
<!-- Title: group_collection_wf Pages: 1 -->
<svg width="276pt" height="283pt"
 viewBox="0.00 0.00 276.00 283.00" xmlns="http://www.w3.org/2000/svg" xmlns:xlink="http://www.w3.org/1999/xlink">
<g id="graph0" class="graph" transform="scale(1 1) rotate(0) translate(4 279)">
<title>group_collection_wf</title>
<polygon fill="white" stroke="none" points="-4,4 -4,-279 272,-279 272,4 -4,4"/>
<text text-anchor="middle" x="134" y="-7.8" font-family="Times,serif" font-size="14.00">group_collection_wf</text>
<!-- group_collection_wf_input_node -->
<g id="node1" class="node"><title>group_collection_wf_input_node</title>
<ellipse fill="none" stroke="black" cx="134" cy="-257" rx="78.9404" ry="18"/>
<text text-anchor="middle" x="134" y="-253.3" font-family="Times,serif" font-size="14.00">input_node (utility)</text>
</g>
<!-- group_collection_wf_matrix_proc_node -->
<g id="node2" class="node"><title>group_collection_wf_matrix_proc_node</title>
<ellipse fill="none" stroke="black" cx="134" cy="-185" rx="104.461" ry="18"/>
<text text-anchor="middle" x="134" y="-181.3" font-family="Times,serif" font-size="14.00">matrix_proc_node (utility)</text>
</g>
<!-- group_collection_wf_input_node&#45;&gt;group_collection_wf_matrix_proc_node -->
<g id="edge1" class="edge"><title>group_collection_wf_input_node&#45;&gt;group_collection_wf_matrix_proc_node</title>
<path fill="none" stroke="black" d="M134,-238.697C134,-230.983 134,-221.712 134,-213.112"/>
<polygon fill="black" stroke="black" points="137.5,-213.104 134,-203.104 130.5,-213.104 137.5,-213.104"/>
</g>
<!-- group_collection_wf_merge_dfs_node -->
<g id="node3" class="node"><title>group_collection_wf_merge_dfs_node</title>
<ellipse fill="none" stroke="black" cx="134" cy="-113" rx="98.1881" ry="18"/>
<text text-anchor="middle" x="134" y="-109.3" font-family="Times,serif" font-size="14.00">merge_dfs_node (utility)</text>
</g>
<!-- group_collection_wf_matrix_proc_node&#45;&gt;group_collection_wf_merge_dfs_node -->
<g id="edge2" class="edge"><title>group_collection_wf_matrix_proc_node&#45;&gt;group_collection_wf_merge_dfs_node</title>
<path fill="none" stroke="black" d="M134,-166.697C134,-158.983 134,-149.712 134,-141.112"/>
<polygon fill="black" stroke="black" points="137.5,-141.104 134,-131.104 130.5,-141.104 137.5,-141.104"/>
</g>
<!-- group_collection_wf_write_out_group_tsv_node -->
<g id="node4" class="node"><title>group_collection_wf_write_out_group_tsv_node</title>
<ellipse fill="none" stroke="black" cx="134" cy="-41" rx="134.307" ry="18"/>
<text text-anchor="middle" x="134" y="-37.3" font-family="Times,serif" font-size="14.00">write_out_group_tsv_node (utility)</text>
</g>
<!-- group_collection_wf_merge_dfs_node&#45;&gt;group_collection_wf_write_out_group_tsv_node -->
<g id="edge3" class="edge"><title>group_collection_wf_merge_dfs_node&#45;&gt;group_collection_wf_write_out_group_tsv_node</title>
<path fill="none" stroke="black" d="M134,-94.6966C134,-86.9827 134,-77.7125 134,-69.1124"/>
<polygon fill="black" stroke="black" points="137.5,-69.1043 134,-59.1043 130.5,-69.1044 137.5,-69.1043"/>
</g>
</g>
</svg>
