<?xml version="1.0" encoding="UTF-8" standalone="no"?>
<!DOCTYPE svg PUBLIC "-//W3C//DTD SVG 1.1//EN"
 "http://www.w3.org/Graphics/SVG/1.1/DTD/svg11.dtd">
<!-- Generated by graphviz version 2.36.0 (20140111.2315)
 -->
<!-- Title: connectivity_wf Pages: 1 -->
<svg width="521pt" height="427pt"
 viewBox="0.00 0.00 521.00 427.00" xmlns="http://www.w3.org/2000/svg" xmlns:xlink="http://www.w3.org/1999/xlink">
<g id="graph0" class="graph" transform="scale(1 1) rotate(0) translate(4 423)">
<title>connectivity_wf</title>
<polygon fill="white" stroke="none" points="-4,4 -4,-423 517,-423 517,4 -4,4"/>
<text text-anchor="middle" x="256.5" y="-7.8" font-family="Times,serif" font-size="14.00">connectivity_wf</text>
<!-- connectivity_wf_input_node -->
<g id="node1" class="node"><title>connectivity_wf_input_node</title>
<ellipse fill="none" stroke="black" cx="309" cy="-401" rx="78.9404" ry="18"/>
<text text-anchor="middle" x="309" y="-397.3" font-family="Times,serif" font-size="14.00">input_node (utility)</text>
</g>
<!-- connectivity_wf_get_files_node -->
<g id="node2" class="node"><title>connectivity_wf_get_files_node</title>
<ellipse fill="none" stroke="black" cx="180" cy="-329" rx="91.4625" ry="18"/>
<text text-anchor="middle" x="180" y="-325.3" font-family="Times,serif" font-size="14.00">get_files_node (utility)</text>
</g>
<!-- connectivity_wf_input_node&#45;&gt;connectivity_wf_get_files_node -->
<g id="edge1" class="edge"><title>connectivity_wf_input_node&#45;&gt;connectivity_wf_get_files_node</title>
<path fill="none" stroke="black" d="M279.728,-384.116C261.631,-374.296 238.197,-361.58 218.593,-350.942"/>
<polygon fill="black" stroke="black" points="220.061,-347.757 209.603,-346.064 216.723,-353.909 220.061,-347.757"/>
</g>
<!-- connectivity_wf_extract_ts_node -->
<g id="node4" class="node"><title>connectivity_wf_extract_ts_node</title>
<ellipse fill="none" stroke="black" cx="239" cy="-185" rx="95.3122" ry="18"/>
<text text-anchor="middle" x="239" y="-181.3" font-family="Times,serif" font-size="14.00">extract_ts_node (utility)</text>
</g>
<!-- connectivity_wf_input_node&#45;&gt;connectivity_wf_extract_ts_node -->
<g id="edge2" class="edge"><title>connectivity_wf_input_node&#45;&gt;connectivity_wf_extract_ts_node</title>
<path fill="none" stroke="black" d="M296.731,-382.935C288.621,-365.017 279.181,-336.023 271,-311 260.009,-277.379 247.31,-238.688 240.986,-213.367"/>
<polygon fill="black" stroke="black" points="244.343,-212.347 238.69,-203.387 237.521,-213.917 244.343,-212.347"/>
</g>
<!-- connectivity_wf_input_node&#45;&gt;connectivity_wf_extract_ts_node -->
<g id="edge3" class="edge"><title>connectivity_wf_input_node&#45;&gt;connectivity_wf_extract_ts_node</title>
<path fill="none" stroke="black" d="M310.17,-382.935C306.621,-365.017 297.181,-336.023 289,-311 277.848,-276.887 264.938,-237.555 254.55,-212.264"/>
<polygon fill="black" stroke="black" points="257.723,-210.783 250.556,-202.98 251.292,-213.549 257.723,-210.783"/>
</g>
<!-- connectivity_wf_write_out_corr_matrix_node -->
<g id="node6" class="node"><title>connectivity_wf_write_out_corr_matrix_node</title>
<ellipse fill="none" stroke="black" cx="372" cy="-41" rx="141.531" ry="18"/>
<text text-anchor="middle" x="372" y="-37.3" font-family="Times,serif" font-size="14.00">write_out_corr_matrix_node (utility)</text>
</g>
<!-- connectivity_wf_input_node&#45;&gt;connectivity_wf_write_out_corr_matrix_node -->
<g id="edge4" class="edge"><title>connectivity_wf_input_node&#45;&gt;connectivity_wf_write_out_corr_matrix_node</title>
<path fill="none" stroke="black" d="M316.489,-382.721C331.854,-357.027 363,-306.546 363,-258 363,-258 363,-258 363,-184 363,-143.996 363,-97.6528 365.292,-69.0798"/>
<polygon fill="black" stroke="black" points="368.783,-69.3461 366.288,-59.0493 361.817,-68.6547 368.783,-69.3461"/>
</g>
<!-- connectivity_wf_input_node&#45;&gt;connectivity_wf_write_out_corr_matrix_node -->
<g id="edge5" class="edge"><title>connectivity_wf_input_node&#45;&gt;connectivity_wf_write_out_corr_matrix_node</title>
<path fill="none" stroke="black" d="M327.873,-383.147C349.507,-357.588 381,-306.816 381,-258 381,-258 381,-258 381,-184 381,-143.996 381,-97.6528 378.708,-69.0798"/>
<polygon fill="black" stroke="black" points="382.183,-68.6547 377.712,-59.0493 375.217,-69.3461 382.183,-68.6547"/>
</g>
<!-- connectivity_wf_confounds2df_node -->
<g id="node3" class="node"><title>connectivity_wf_confounds2df_node</title>
<ellipse fill="none" stroke="black" cx="109" cy="-257" rx="109.261" ry="18"/>
<text text-anchor="middle" x="109" y="-253.3" font-family="Times,serif" font-size="14.00">confounds2df_node (utility)</text>
</g>
<!-- connectivity_wf_get_files_node&#45;&gt;connectivity_wf_confounds2df_node -->
<g id="edge6" class="edge"><title>connectivity_wf_get_files_node&#45;&gt;connectivity_wf_confounds2df_node</title>
<path fill="none" stroke="black" d="M162.813,-311.055C153.917,-302.285 142.909,-291.432 133.172,-281.831"/>
<polygon fill="black" stroke="black" points="135.607,-279.317 126.029,-274.789 130.693,-284.302 135.607,-279.317"/>
</g>
<!-- connectivity_wf_get_files_node&#45;&gt;connectivity_wf_extract_ts_node -->
<g id="edge7" class="edge"><title>connectivity_wf_get_files_node&#45;&gt;connectivity_wf_extract_ts_node</title>
<path fill="none" stroke="black" d="M199.533,-311.316C209.421,-301.731 220.646,-288.863 227,-275 235.864,-255.66 238.688,-231.651 239.392,-213.446"/>
<polygon fill="black" stroke="black" points="242.896,-213.282 239.592,-203.215 235.897,-213.145 242.896,-213.282"/>
</g>
<!-- connectivity_wf_confounds2df_node&#45;&gt;connectivity_wf_extract_ts_node -->
<g id="edge8" class="edge"><title>connectivity_wf_confounds2df_node&#45;&gt;connectivity_wf_extract_ts_node</title>
<path fill="none" stroke="black" d="M139.479,-239.588C157.49,-229.89 180.482,-217.51 199.829,-207.092"/>
<polygon fill="black" stroke="black" points="201.566,-210.132 208.712,-202.309 198.248,-203.968 201.566,-210.132"/>
</g>
<!-- connectivity_wf_make_corr_matrix_node -->
<g id="node5" class="node"><title>connectivity_wf_make_corr_matrix_node</title>
<ellipse fill="none" stroke="black" cx="208" cy="-113" rx="127.083" ry="18"/>
<text text-anchor="middle" x="208" y="-109.3" font-family="Times,serif" font-size="14.00">make_corr_matrix_node (utility)</text>
</g>
<!-- connectivity_wf_extract_ts_node&#45;&gt;connectivity_wf_make_corr_matrix_node -->
<g id="edge9" class="edge"><title>connectivity_wf_extract_ts_node&#45;&gt;connectivity_wf_make_corr_matrix_node</title>
<path fill="none" stroke="black" d="M231.496,-167.055C227.969,-159.091 223.682,-149.411 219.74,-140.51"/>
<polygon fill="black" stroke="black" points="222.9,-139.002 215.65,-131.275 216.5,-141.836 222.9,-139.002"/>
</g>
<!-- connectivity_wf_make_corr_matrix_node&#45;&gt;connectivity_wf_write_out_corr_matrix_node -->
<g id="edge10" class="edge"><title>connectivity_wf_make_corr_matrix_node&#45;&gt;connectivity_wf_write_out_corr_matrix_node</title>
<path fill="none" stroke="black" d="M246.037,-95.7646C269.363,-85.8087 299.426,-72.9766 324.333,-62.3458"/>
<polygon fill="black" stroke="black" points="325.778,-65.5345 333.601,-58.3898 323.03,-59.0965 325.778,-65.5345"/>
</g>
</g>
</svg>
